<!--?xml version="1.0" encoding="utf-8"?-->
<!-- Generator: Adobe Illustrator 18.1.1, SVG Export Plug-In . SVG Version: 6.00 Build 0)  -->

<svg version="1.1" id="_x32_" xmlns="http://www.w3.org/2000/svg" xmlns:xlink="http://www.w3.org/1999/xlink" x="0px" y="0px" viewBox="0 0 512 512" style="width: 256px; height: 256px; opacity: 1;" xml:space="preserve">
<style type="text/css">
	.st0{fill:#4B4B4B;}
</style>
<g>
	<path class="st0" d="M202.036,0H12.393v209.875h78.708C155.232,182.91,202.036,99.178,202.036,0z" style="fill: rgb(255, 255, 255);"></path>
	<path class="st0" d="M91.101,247.007H12.393v173.128h126.426C138.819,358.14,120.467,286.848,91.101,247.007z" style="fill: rgb(255, 255, 255);"></path>
	<path class="st0" d="M309.965,0c0,99.178,46.8,182.91,110.935,209.875h78.708V0H309.965z" style="fill: rgb(255, 255, 255);"></path>
	<path class="st0" d="M373.173,420.135h126.434V247.007h-78.708C391.525,286.848,373.173,358.14,373.173,420.135z" style="fill: rgb(255, 255, 255);"></path>
	<rect x="12.393" y="455.131" class="st0" width="487.214" height="56.869" style="fill: rgb(255, 255, 255);"></rect>
	<path class="st0" d="M219.475,216.086l31.032,8.168c10.236,2.683,18.216,10.68,20.907,20.899l8.168,31.032
		c0.564,2.153,2.512,3.648,4.733,3.648c2.222,0,4.161-1.495,4.726-3.648l8.167-31.032c2.683-10.219,10.672-18.216,20.908-20.899
		l31.032-8.168c2.144-0.564,3.64-2.503,3.64-4.733c0-2.222-1.495-4.161-3.64-4.725l-31.032-8.168
		c-10.236-2.691-18.224-10.68-20.908-20.908l-8.167-31.031c-0.564-2.145-2.504-3.64-4.726-3.64c-2.23,0-4.17,1.495-4.733,3.64
		l-8.168,31.031c-2.691,10.228-10.671,18.216-20.907,20.908l-31.032,8.168c-2.153,0.564-3.648,2.503-3.648,4.725
		C215.827,213.583,217.322,215.523,219.475,216.086z" style="fill: rgb(255, 255, 255);"></path>
	<path class="st0" d="M194.433,271.418c-0.342-1.316-1.522-2.222-2.888-2.222c-1.35,0-2.537,0.906-2.879,2.222l-4.99,18.967
		c-1.649,6.237-6.528,11.124-12.774,12.765l-18.959,4.99c-1.316,0.342-2.23,1.529-2.23,2.888c0,1.35,0.914,2.546,2.23,2.888
		l18.959,4.99c6.246,1.641,11.124,6.528,12.774,12.765l4.99,18.959c0.342,1.324,1.529,2.229,2.879,2.229
		c1.367,0,2.546-0.906,2.888-2.229l4.998-18.959c1.641-6.237,6.519-11.124,12.764-12.765l18.96-4.99
		c1.316-0.342,2.23-1.538,2.23-2.888c0-1.359-0.914-2.546-2.23-2.888l-18.96-4.99c-6.245-1.64-11.123-6.528-12.764-12.765
		L194.433,271.418z" style="fill: rgb(255, 255, 255);"></path>
</g>
</svg>
